<?xml version="1.0" encoding="utf-8"?>
<!-- Generator: Adobe Illustrator 21.0.0, SVG Export Plug-In . SVG Version: 6.00 Build 0)  -->
<svg version="1.1" id="Layer_1" xmlns="http://www.w3.org/2000/svg" xmlns:xlink="http://www.w3.org/1999/xlink" x="0px" y="0px"
	 viewBox="0 0 512 512" style="enable-background:new 0 0 512 512;" xml:space="preserve">
<style type="text/css">
	.st0{fill:#F2F2F2;}
</style>
<g transform="translate(1 1)">
	<g>
		<path class="st0" d="M485.5-1h-461C10.4-1-1,10.4-1,24.5v461c0,14.1,11.4,25.5,25.5,25.5h213.4h102.4h145.2
			c14.1,0,25.5-11.4,25.5-25.5v-461C511,10.4,499.6-1,485.5-1z M255,493.9V323.3h-68.3V255H255v-59.7c0-48.6,37.5-89.6,85.3-93.9
			h76.8v68.3h-85.4c-4.7,0-8.4,3.8-8.4,8.4V255h85.3v68.3h-85.3v170.7L255,493.9L255,493.9z M493.9,468.3
			c0,14.5-11.1,25.6-25.6,25.6h-128V340.3h85.3V237.9h-85.3v-51.2h93.9V84.3h-94.7c-57.2,5.1-101.5,53.8-101.5,110.9v42.7h-68.3
			v102.4h68.3v153.6H24.5c-4.7,0-8.4-3.8-8.4-8.4v-461c0-4.7,3.8-8.4,8.4-8.4h461c4.7,0,8.4,3.8,8.4,8.4L493.9,468.3L493.9,468.3z"
			/>
	</g>
</g>
</svg>
